<?xml version="1.0" standalone="no"?>
<!DOCTYPE svg PUBLIC "-//W3C//DTD SVG 20010904//EN"
 "http://www.w3.org/TR/2001/REC-SVG-20010904/DTD/svg10.dtd">
<svg version="1.0" xmlns="http://www.w3.org/2000/svg"
 width="96.000000pt" height="96.000000pt" viewBox="0 0 96.000000 96.000000"
 preserveAspectRatio="xMidYMid meet">
<metadata>
Created by potrace 1.14, written by Peter Selinger 2001-2017
</metadata>
<g transform="translate(0.000000,96.000000) scale(0.100000,-0.100000)"
fill="#000000" stroke="none">
<path d="M209 936 c-13 -29 -4 -89 15 -105 12 -10 11 -19 -4 -59 -11 -31 -16
-66 -13 -103 3 -44 -2 -68 -20 -107 -32 -69 -35 -150 -7 -208 12 -24 28 -44
35 -44 12 0 85 -38 85 -44 0 -2 -7 -3 -15 -3 -8 0 -15 4 -15 9 0 9 -232 8
-257 0 -9 -3 -10 -9 -3 -23 13 -23 10 -212 -3 -220 -5 -4 -6 -12 -3 -18 7 -10
68 -8 116 4 8 2 35 7 60 10 25 3 70 10 100 15 30 5 75 12 100 15 25 3 72 11
105 16 77 14 150 4 245 -32 64 -25 82 -28 105 -19 59 22 74 88 30 130 -14 13
-25 27 -25 31 0 4 20 18 45 30 55 27 63 36 71 76 5 24 1 36 -15 52 -28 28 -55
27 -142 -10 -41 -17 -90 -33 -109 -36 l-35 -5 25 19 c14 10 28 17 32 15 4 -1
16 15 27 36 27 52 23 140 -9 207 -17 37 -24 68 -24 118 -1 37 -5 71 -11 75 -5
4 -16 15 -24 24 -11 15 -10 22 13 49 18 21 26 42 26 69 0 53 -19 66 -61 41
-65 -39 -176 -54 -271 -38 -41 7 -118 35 -132 49 -16 13 -26 9 -37 -16z"/>
</g>
</svg>
